<!DOCTYPE svg PUBLIC "-//W3C//DTD SVG 1.1//EN" "http://www.w3.org/Graphics/SVG/1.1/DTD/svg11.dtd">
<!-- Uploaded to: SVG Repo, www.svgrepo.com, Transformed by: SVG Repo Mixer Tools -->
<svg height="800px" width="800px" version="1.1" id="Layer_1" xmlns="http://www.w3.org/2000/svg" xmlns:xlink="http://www.w3.org/1999/xlink" viewBox="0 0 512 512" xml:space="preserve" fill="#000000">
<g id="SVGRepo_bgCarrier" stroke-width="0"/>
<g id="SVGRepo_tracerCarrier" stroke-linecap="round" stroke-linejoin="round"/>
<g id="SVGRepo_iconCarrier"> <path style="fill:#98C7E5;" d="M512,133.565v178.087v178.087c0,12.295-9.966,22.261-22.261,22.261H333.913 c-12.295,0-22.261-9.966-22.261-22.261v-66.783H200.348h-89.043c-12.295,0-22.261-9.966-22.261-22.261v-89.043H22.261 C9.966,311.652,0,301.686,0,289.391V22.261C0,9.966,9.966,0,22.261,0h267.13c12.295,0,22.261,9.966,22.261,22.261v89.043h178.087 C502.034,111.304,512,121.271,512,133.565z"/> <g> <path style="fill:#73A4BC;" d="M169.739,367.304c0,4.611-3.736,8.348-8.348,8.348H128c-4.611,0-8.348-3.736-8.348-8.348 c0-4.611,3.736-8.348,8.348-8.348h33.391C166.003,358.957,169.739,362.693,169.739,367.304z"/> <path style="fill:#73A4BC;" d="M512,133.565v178.087v178.087c0,12.295-9.966,22.261-22.261,22.261H333.913 c-12.295,0-22.261-9.966-22.261-22.261v-66.783H200.348V311.652H22.261C9.966,311.652,0,301.686,0,289.391V22.261 C0,9.966,9.966,0,22.261,0h267.13c12.295,0,22.261,9.966,22.261,22.261v89.043h178.087C502.034,111.304,512,121.271,512,133.565z"/> </g> <path style="fill:#56889B;" d="M281.043,367.304c0,4.611-3.736,8.348-8.348,8.348h-33.391c-4.611,0-8.348-3.736-8.348-8.348 c0-4.611,3.736-8.348,8.348-8.348h33.391C277.307,358.957,281.043,362.693,281.043,367.304z"/> <path style="fill:#FF8655;" d="M512,133.565v178.087v178.087c0,12.295-9.966,22.261-22.261,22.261H333.913 c-12.295,0-22.261-9.966-22.261-22.261V311.652H22.261C9.966,311.652,0,301.686,0,289.391V22.261C0,9.966,9.966,0,22.261,0h267.13 c12.295,0,22.261,9.966,22.261,22.261v89.043h178.087C502.034,111.304,512,121.271,512,133.565z"/> <path style="fill:#FF6029;" d="M512,311.652v178.087c0,12.295-9.966,22.261-22.261,22.261H333.913 c-12.295,0-22.261-9.966-22.261-22.261V311.652H512z M367.304,203.13h89.043c4.611,0,8.348-3.736,8.348-8.348 c0-4.611-3.736-8.348-8.348-8.348h-89.043c-4.611,0-8.348,3.736-8.348,8.348C358.957,199.394,362.693,203.13,367.304,203.13z M389.565,219.826c-4.611,0-8.348,3.736-8.348,8.348s3.736,8.348,8.348,8.348h44.522c4.611,0,8.348-3.736,8.348-8.348 s-3.736-8.348-8.348-8.348H389.565z"/> <path style="fill:#B7441C;" d="M464.696,395.13c0,4.611-3.736,8.348-8.348,8.348h-89.043c-4.611,0-8.348-3.736-8.348-8.348 c0-4.611,3.736-8.348,8.348-8.348h89.043C460.959,386.783,464.696,390.519,464.696,395.13z M434.087,420.174h-44.522 c-4.611,0-8.348,3.736-8.348,8.348c0,4.611,3.736,8.348,8.348,8.348h44.522c4.611,0,8.348-3.736,8.348-8.348 C442.435,423.91,438.698,420.174,434.087,420.174z"/> <path style="fill:#FFBC00;" d="M311.652,311.652H22.261C9.966,311.652,0,301.686,0,289.391V22.261C0,9.966,9.966,0,22.261,0h267.13 c12.295,0,22.261,9.966,22.261,22.261V311.652z"/> <path style="fill:#E0A000;" d="M230.957,139.13c0,4.611-3.736,8.348-8.348,8.348H89.043c-4.611,0-8.348-3.736-8.348-8.348 s3.736-8.348,8.348-8.348h133.565C227.22,130.783,230.957,134.519,230.957,139.13z M178.087,164.174h-44.522 c-4.611,0-8.348,3.736-8.348,8.348s3.736,8.348,8.348,8.348h44.522c4.611,0,8.348-3.736,8.348-8.348 S182.698,164.174,178.087,164.174z"/> </g>
</svg>